<svg width="100" height="100" viewBox="0 0 100 100" xmlns="http://www.w3.org/2000/svg">
  <defs>
    <linearGradient id="gradient3" x1="0%" y1="0%" x2="100%" y2="100%">
      <stop offset="0%" stop-color="#00ff9d" stop-opacity="0.6"/>
      <stop offset="50%" stop-color="#ffffff" stop-opacity="0.3"/>
      <stop offset="100%" stop-color="#00ccff" stop-opacity="0.6"/>
    </linearGradient>
    <filter id="glow" x="-20%" y="-20%" width="140%" height="140%">
      <feGaussianBlur stdDeviation="2" result="blur"/>
      <feComposite in="SourceGraphic" in2="blur" operator="over"/>
    </filter>
  </defs>
  <g filter="url(#glow)">
    <!-- Polígono abstrato -->
    <polygon points="50,10 90,50 50,90 10,50" 
             fill="none" 
             stroke="url(#gradient3)" 
             stroke-width="2" />
    
    <!-- Estrela -->
    <path d="M50,20 L55,40 L75,40 L60,50 L65,70 L50,60 L35,70 L40,50 L25,40 L45,40 Z" 
          fill="none" 
          stroke="url(#gradient3)" 
          stroke-width="1.5" />
    
    <!-- Círculos decorativos -->
    <circle cx="50" cy="10" r="3" fill="url(#gradient3)" />
    <circle cx="90" cy="50" r="3" fill="url(#gradient3)" />
    <circle cx="50" cy="90" r="3" fill="url(#gradient3)" />
    <circle cx="10" cy="50" r="3" fill="url(#gradient3)" />
    
    <!-- Círculo central com pulso -->
    <circle cx="50" cy="50" r="8" fill="url(#gradient3)" opacity="0.7">
      <animate attributeName="r" values="8;12;8" dur="4s" repeatCount="indefinite" />
      <animate attributeName="opacity" values="0.7;0.9;0.7" dur="4s" repeatCount="indefinite" />
    </circle>
    
    <!-- Linha decorativa -->
    <path d="M20,20 Q50,0 80,20 T50,80 T20,20" 
          fill="none" 
          stroke="url(#gradient3)" 
          stroke-width="0.7"
          stroke-dasharray="2,2" />
  </g>
</svg> 