<svg width="100" height="100" viewBox="0 0 100 100" xmlns="http://www.w3.org/2000/svg">
  <defs>
    <linearGradient id="gradient2" x1="0%" y1="0%" x2="100%" y2="100%">
      <stop offset="0%" stop-color="#0066ff" stop-opacity="0.7"/>
      <stop offset="100%" stop-color="#00ff9d" stop-opacity="0.7"/>
    </linearGradient>
  </defs>
  <g>
    <!-- Forma abstrata principal -->
    <path d="M30,30 C40,10 60,10 70,30 S90,50 70,70 S40,90 30,70 S10,50 30,30 Z" 
          fill="none" 
          stroke="url(#gradient2)" 
          stroke-width="2" />
    
    <!-- Linhas cruzadas -->
    <line x1="30" y1="30" x2="70" y2="70" stroke="url(#gradient2)" stroke-width="1" />
    <line x1="70" y1="30" x2="30" y2="70" stroke="url(#gradient2)" stroke-width="1" />
    
    <!-- Círculos nos pontos de interseção -->
    <circle cx="30" cy="30" r="5" fill="url(#gradient2)" opacity="0.8" />
    <circle cx="70" cy="30" r="5" fill="url(#gradient2)" opacity="0.8" />
    <circle cx="70" cy="70" r="5" fill="url(#gradient2)" opacity="0.8" />
    <circle cx="30" cy="70" r="5" fill="url(#gradient2)" opacity="0.8" />
    <circle cx="50" cy="50" r="7" fill="url(#gradient2)" opacity="0.9" />
    
    <!-- Detalhes extras -->
    <path d="M40,40 Q50,20 60,40 T60,60 Q50,80 40,60 T40,40" 
          fill="none" 
          stroke="url(#gradient2)" 
          stroke-width="1"
          stroke-dasharray="2,2" />
  </g>
</svg> 