<svg width="100" height="100" viewBox="0 0 100 100" xmlns="http://www.w3.org/2000/svg">
  <defs>
    <linearGradient id="gradient1" x1="0%" y1="0%" x2="100%" y2="100%">
      <stop offset="0%" stop-color="#00ff9d" stop-opacity="0.8"/>
      <stop offset="100%" stop-color="#00ccff" stop-opacity="0.8"/>
    </linearGradient>
  </defs>
  <g>
    <!-- Forma de mosaico estilizada -->
    <path d="M20,20 L80,20 L80,80 L20,80 Z" fill="none" stroke="url(#gradient1)" stroke-width="2" />
    <path d="M30,30 L70,30 L70,70 L30,70 Z" fill="none" stroke="url(#gradient1)" stroke-width="2" />
    <path d="M40,40 L60,40 L60,60 L40,60 Z" fill="none" stroke="url(#gradient1)" stroke-width="2" />
    
    <!-- Elementos de mosaico -->
    <rect x="22" y="22" width="16" height="16" fill="url(#gradient1)" opacity="0.5" />
    <rect x="42" y="22" width="16" height="16" fill="url(#gradient1)" opacity="0.3" />
    <rect x="62" y="22" width="16" height="16" fill="url(#gradient1)" opacity="0.7" />
    
    <rect x="22" y="42" width="16" height="16" fill="url(#gradient1)" opacity="0.3" />
    <rect x="62" y="42" width="16" height="16" fill="url(#gradient1)" opacity="0.5" />
    
    <rect x="22" y="62" width="16" height="16" fill="url(#gradient1)" opacity="0.7" />
    <rect x="42" y="62" width="16" height="16" fill="url(#gradient1)" opacity="0.5" />
    <rect x="62" y="62" width="16" height="16" fill="url(#gradient1)" opacity="0.3" />
    
    <!-- Círculo central -->
    <circle cx="50" cy="50" r="10" fill="url(#gradient1)" opacity="0.9" />
  </g>
</svg> 